<svg width="58" height="58" viewBox="-3 -3 64 64" fill="none" xmlns="http://www.w3.org/2000/svg">
<path d="M29 58C45.0163 58 58 45.0163 58 29C58 12.9837 45.0163 0 29 0C12.9837 0 0 12.9837 0 29C0 45.0163 12.9837 58 29 58Z" fill="#5F67FA"/>
<path fill-rule="evenodd" clip-rule="evenodd" d="M35.9275 23C35.4406 19.6123 32.5201 17 29 17C27.8661 17 26.7953 17.2727 25.8469 17.7534L24.6902 16.1013C25.9709 15.3997 27.4396 15 29 15C33.6246 15 37.444 18.5063 37.9431 23H35.9275ZM22 28.9797H20V24C20 21.3149 21.1833 18.9023 23.0543 17.252L24.21 18.9023C22.8511 20.1802 22 21.9922 22 24V28.9797ZM29 41C25.1403 41 22 37.8599 22 34V33H20V34C20 38.9626 24.0374 43 29 43C29.8342 43 30.6414 42.8833 31.4086 42.6699L30.1694 40.9004C29.7889 40.9648 29.3986 41 29 41ZM29 37C27.3457 37 26 35.6543 26 34V27H24V34C24 36.7568 26.243 39 29 39C31.4147 39 33.4348 37.2793 33.8994 35H31.8251C31.4119 36.1633 30.3033 37 29 37ZM30 23.9595V34C30 34.5522 29.5524 35 29 35C28.4476 35 28 34.5522 28 34V23.9595C28 23.4072 28.4476 22.9595 29 22.9595C29.5524 22.9595 30 23.4072 30 23.9595ZM36 25V34C36 35.2568 35.6654 36.4365 35.0829 37.457L36.3209 39.2251C37.3763 37.7507 38 35.9473 38 34V25H36ZM24 24C24 21.2429 26.243 19 29 19C31.7571 19 34 21.2429 34 24V31H32V24C32 22.3457 30.6543 21 29 21C27.3457 21 26 22.3457 26 24V25H24V24Z" fill="white"/>
</svg>
